<svg id="Calque_1" data-name="Calque 1" xmlns="http://www.w3.org/2000/svg" viewBox="0 0 623.74 609.58"><defs><style>.cls-1{fill:#fff;}.cls-2{fill:#df2321;}</style></defs><path d="M657.41,150.18l-4.94,9a2.68,2.68,0,0,1-1,1l-9.33,5c-2.42,1.27-4.59,2.51-6.24,3.53a2.57,2.57,0,0,0,.09,4.41c1.76,1,4.08,2.32,6.55,3.66l8.55,4.64a2.62,2.62,0,0,1,1,1l5.54,9.76,3.61,6.31a2.58,2.58,0,0,0,4.5,0l3.39-6.17,5.24-9.56a2.62,2.62,0,0,1,1-1L684,177c5.1-2.8,9.3-4.08,9.3-6s-4.2-3.2-9.3-6l-8.64-4.74a2.57,2.57,0,0,1-1-1l-4.84-8.84c-1.46-2.61-2.86-5-4-6.78a2.58,2.58,0,0,0-4.37,0C660.12,145.29,658.79,147.61,657.41,150.18Z" transform="translate(-252.47 -140.67)"/><path d="M809.39,509.74l-10,18.5-16.5,9c-9.1,4.9-17.3,9.5-18.4,10.3-1.6,1.2-.1,2.3,16.5,11.4l18.4,10.1,9.9,18.1c5.5,9.9,10.2,18.1,10.5,18.1s4.4-7,9.1-15.6,9.2-16.9,10.1-18.3c1.1-1.8,7.6-5.9,19.8-12.6,10-5.4,17.8-10.2,17.4-10.6s-8.7-5-18.4-10.3l-17.6-9.6-9.2-16.8c-5-9.3-9.7-17.6-10.4-18.5C819.59,491.54,817.89,494,809.39,509.74Z" transform="translate(-252.47 -140.67)"/><path class="cls-1" d="M693.17,389.44c-.8-.2-10.7.6-21.9,1.7-134.7,13.5-229.4,13.3-361.2-.4-19.2-2.1-18.9-2.1-14.6,1.6,12.1,10.6,52.9,38.4,52.9,38.4s97.8,57.35,167.8,46.5,110.4-33,165.8-77.3C689.77,393.74,694.17,389.64,693.17,389.44Z" transform="translate(-252.47 -140.67)"/><path d="M723.67,366.64c-13-1.9-26.6-13.4-67.8-57.5-39-41.6-52.4-53-66.2-55.9-17-3.7-47.8,14.3-83.4,48.9l-12.8,12.3-12.7-12c-28.9-27.2-51.6-43.2-67.4-47.5-7.5-2.1-11.7-2.5-16.7-1.6-12.8,2.4-25.1,13.4-58.8,52.4-38.8,45-55.2,58.4-74.8,61-6.7.9-10.6,4.7-10.6,10.5,0,3.8.6,4.8,6.3,10.7,17.4,18.3,39.93,40.37,80.5,62.6s105.8,46.6,133.5,48.4,40.3.7,54.4-1.5q84-13.5,167.7-80.1c15.7-12.6,35.5-30.8,37.9-34.9C736.67,375.74,732.17,367.94,723.67,366.64ZM323,360.6a16.78,16.78,0,0,1,2.21-2c6.68-7.58,14.15-14.42,20.85-22,8.64-9.81,17-19.81,25.68-29.6,8.33-9.43,16.76-18.78,26.3-27.07,5.43-4.72,11.17-6.13,17.84-3.28,4.34,2.49,9.18,4.13,12.92,7.63L444.85,296a25.9,25.9,0,0,1,4,3.07c13.51,11.57,26.18,24,38.53,36.81,4.62,4.79,10.85,4.32,15.75-1a378.57,378.57,0,0,1,44.15-41,136.27,136.27,0,0,1,24.18-15.73c7.28-3.59,13.66-3.17,20.24,2.08,15.42,12.3,28.31,27.08,41.8,41.28q16.65,17.5,33.21,35.09c1.22,1.33,2.64,2.46,4,3.68,1.08,1,2.65,1.77,1.85,3.55-.66,1.49-2.19,1.92-3.74,1.91a14.19,14.19,0,0,0-5.31.93c-.58.07-1.15.12-1.73.14-21,1.36-42,3.56-63,5.18-20.71,1.59-41.44,2.6-62.16,3.57-22.41,1.06-44.88.8-67.33.4-17.79-.31-35.52-1.45-53.28-2.23-15.09-.66-30.14-2.12-45.21-3.19-12.92-.92-25.77-2.58-38.7-3.33a53.19,53.19,0,0,1-6.91-1C320.35,365.32,319.93,364.14,323,360.6Zm359,39.34c-55.4,44.3-95.8,66.46-165.8,77.3s-167.8-46.5-167.8-46.5-40.8-27.8-52.9-38.4c-4.3-3.7-4.6-3.7,14.6-1.6,131.8,13.7,226.5,13.9,361.2.4,11.2-1.1,21.1-1.9,21.9-1.7C694.17,389.64,689.77,393.74,682,399.94Z" transform="translate(-252.47 -140.67)"/><path class="cls-2" d="M325.1,366.24a53.19,53.19,0,0,0,6.91,1c12.93.75,25.78,2.41,38.7,3.33,15.07,1.07,30.12,2.53,45.21,3.19,17.76.78,35.49,1.92,53.28,2.23,22.45.4,44.92.66,67.33-.4,20.72-1,41.45-2,62.16-3.57,21-1.62,42-3.82,63-5.18.58,0,1.15-.07,1.73-.14a14.19,14.19,0,0,1,5.31-.93c1.55,0,3.08-.42,3.74-1.91.8-1.78-.77-2.56-1.85-3.55-1.32-1.22-2.74-2.35-4-3.68Q650.11,339,633.5,321.51c-13.49-14.2-26.38-29-41.8-41.28-6.58-5.25-13-5.67-20.24-2.08a136.27,136.27,0,0,0-24.18,15.73,378.57,378.57,0,0,0-44.15,41c-4.9,5.35-11.13,5.82-15.75,1-12.35-12.79-25-25.24-38.53-36.81a25.9,25.9,0,0,0-4-3.07l-16.06-11.74c-3.74-3.5-8.58-5.14-12.92-7.63-6.67-2.85-12.41-1.44-17.84,3.28-9.54,8.29-18,17.64-26.3,27.07-8.64,9.79-17,19.79-25.68,29.6-6.7,7.6-14.17,14.44-20.85,22a16.78,16.78,0,0,0-2.21,2C319.93,364.14,320.35,365.32,325.1,366.24Z" transform="translate(-252.47 -140.67)"/><path class="cls-2" d="M657.41,150.18l-5.3,9.7-10,5.4c-5.5,2.9-9.7,5.6-9.4,6s4.8,2.9,9.8,5.6l9.2,5,5.9,10.4,5.9,10.3,5.6-10.2,5.6-10.2L684,177c5.1-2.8,9.3-5.5,9.3-6s-4.2-3.2-9.3-6l-9.3-5.1-5.2-9.5c-2.9-5.2-5.6-9.6-6-9.7S660.31,144.78,657.41,150.18Z" transform="translate(-252.47 -140.67)"/><path class="cls-2" d="M809.39,509.74l-10,18.5-16.5,9c-9.1,4.9-17.3,9.5-18.4,10.3-1.6,1.2-.1,2.3,16.5,11.4l18.4,10.1,9.9,18.1c5.5,9.9,10.2,18.1,10.5,18.1s4.4-7,9.1-15.6,9.2-16.9,10.1-18.3c1.1-1.8,7.6-5.9,19.8-12.6,10-5.4,17.8-10.2,17.4-10.6s-8.7-5-18.4-10.3l-17.6-9.6-9.2-16.8c-5-9.3-9.7-17.6-10.4-18.5C819.59,491.54,817.89,494,809.39,509.74Z" transform="translate(-252.47 -140.67)"/><path class="cls-2" d="M435.07,517.24c9.4,0,12.5-5.7,9.9-18.1-4.6-22.3-27.8-48.1-50.8-56.8-12.7-4.7-21.4-2-22.4,7C368.87,474.94,408.27,517.24,435.07,517.24Z" transform="translate(-252.47 -140.67)"/><path class="cls-1" d="M484.47,703.24c0-25.9-.2-47-.4-47s-3.7,1.3-7.8,2.9c-38.6,15.4-95.2,14.4-136-2.4-1.7-.7-1.8,1.9-1.8,46.4v39.5h146Z" transform="translate(-252.47 -140.67)"/><path class="cls-2" d="M407.67,605.24c22.3,0,35.7-3,37.8-8.5.6-1.5,1-12.7,1-25.4v-22.8l-8.7.4c-14,.8-25.4-2.9-41.2-13.4a141.62,141.62,0,0,1-16.8-14l-8.3-8.3v41.1c0,26.2.4,41.7,1,43C375.17,602.24,388.17,605.14,407.67,605.24Z" transform="translate(-252.47 -140.67)"/><path class="cls-1" d="M471.57,614.34l-6.4-3-3.6,3.1c-9.8,8.6-23.9,12-50.1,11.9-19.6,0-28.9-1.2-39.1-5a39.12,39.12,0,0,1-10.1-6l-4.3-3.9-4.8,1.9c-10.3,4.1-14.7,7.9-14.7,13,0,3.2.6,4.1,4.2,6.8,14.6,10.7,50.2,17.2,82.1,15,26.3-1.8,49.4-8.7,58-17.3a8.62,8.62,0,0,0,1.7-5.1C484.47,621.74,481.47,619,471.57,614.34Z" transform="translate(-252.47 -140.67)"/><path id="lipstick" d="M496.77,605.24c-4.9-4.5-21.9-14-25-14-.7,0-1.2-12.9-1.6-41.7-.4-33.8-.8-42.7-2-46.6l-1.5-4.8s-11.2-23.1-17.8-31.6c-16-20.5-40.7-35.6-60.4-37-10.5-.8-14.09-2.12-26.1,7.8s-9.9,21.2-9.9,21.2v66.4c0,54.3-.2,66.3-1.3,66.3-.7,0-5.5,2-10.6,4.5-9.4,4.6-18.9,12.3-21.7,17.7-1.2,2.2-1.4,14.2-1.4,69.8v67H328l.84-7.6h9.66v-39.5c0-44.5.1-47.1,1.8-46.4,40.8,16.8,97.4,17.8,136,2.4,4.1-1.6,7.5-2.9,7.8-2.9s.4,21.1.4,47v39.4h8.75l1.75,7.6h10.5v-66.6C505.47,607.94,506.07,613.74,496.77,605.24Zm-125-155.9c1-9,9.7-11.7,22.4-7,23,8.7,46.2,34.5,50.8,56.8,2.6,12.4-.5,18.1-9.9,18.1C408.27,517.24,368.87,474.94,371.77,449.34Zm-.3,63.9,8.3,8.3a141.62,141.62,0,0,0,16.8,14c15.8,10.5,27.2,14.2,41.2,13.4l8.7-.4v22.8c0,12.7-.4,23.9-1,25.4-2.1,5.5-15.5,8.5-37.8,8.5-19.5-.1-32.5-3-35.2-7.9-.6-1.3-1-16.8-1-43Zm111.3,117.6c-8.6,8.6-31.7,15.5-58,17.3-31.9,2.2-67.5-4.3-82.1-15-3.6-2.7-4.2-3.6-4.2-6.8,0-5.1,4.4-8.9,14.7-13l4.8-1.9,4.3,3.9a39.12,39.12,0,0,0,10.1,6c10.2,3.8,19.5,5,39.1,5,26.2.1,40.3-3.3,50.1-11.9l3.6-3.1,6.4,3c9.9,4.7,12.9,7.4,12.9,11.4A8.62,8.62,0,0,1,482.77,630.84Z" transform="translate(-252.47 -140.67)"/><path d="M338.47,742.64v7.6h146v-7.6Z" transform="translate(-252.47 -140.67)"/><path d="M484.47,742.64v7.6H495l-1.75-7.6Z" transform="translate(-252.47 -140.67)"/><path d="M328.81,742.64l-.84,7.6h10.5v-7.6Z" transform="translate(-252.47 -140.67)"/></svg>